<svg width="8" height="9" viewBox="0 0 8 9" fill="none" xmlns="http://www.w3.org/2000/svg">
<path d="M0.90275 8.73325C0.745578 8.62392 0.666992 8.49447 0.666992 8.3449C0.666992 8.19563 0.745578 8.06632 0.90275 7.95699L5.5079 4.75355L0.887033 1.53917C0.740339 1.43712 0.666992 1.30957 0.666992 1.1565C0.666992 1.00344 0.745578 0.872239 0.90275 0.762906C1.05992 0.653574 1.24601 0.598907 1.46103 0.598907C1.67562 0.598907 1.8615 0.653574 2.01867 0.762906L7.29966 4.44742C7.36253 4.49115 7.40716 4.53853 7.43357 4.58955C7.45955 4.64057 7.47255 4.69524 7.47255 4.75355C7.47255 4.81186 7.45955 4.86652 7.43357 4.91755C7.40716 4.96857 7.36253 5.01594 7.29966 5.05968L2.00296 8.74419C1.85626 8.84623 1.67562 8.89725 1.46103 8.89725C1.24601 8.89725 1.05992 8.84259 0.90275 8.73325Z" fill="#323232"/>
</svg>
